<svg id="visual" viewBox="0 0 1900 1600" width="1900" height="1600" xmlns="http://www.w3.org/2000/svg" xmlns:xlink="http://www.w3.org/1999/xlink" version="1.1"><g><g transform="translate(390 762)"><path d="M196.5 -74.8C217.9 2.1 173.2 89.5 102.7 140.6C32.1 191.8 -64.4 206.6 -137.7 160.2C-210.9 113.9 -261 6.4 -234.2 -77.9C-207.4 -162.3 -103.7 -223.5 -8.1 -220.8C87.5 -218.2 175.1 -151.8 196.5 -74.8Z" stroke="#000000" fill="none" stroke-width="28"></path></g><g transform="translate(1389 336)"><path d="M94.4 -30.3C106.5 6.7 89.7 53.6 56.5 77.7C23.2 101.9 -26.5 103.4 -65.5 78C-104.4 52.6 -132.5 0.2 -119.8 -37.6C-107.1 -75.4 -53.5 -98.6 -6.2 -96.6C41.1 -94.5 82.2 -67.3 94.4 -30.3Z" stroke="#000000" fill="none" stroke-width="28"></path></g><g transform="translate(1769 1357)"><path d="M143.2 -57.4C160.4 6.4 131.8 74.2 75.3 118.8C18.8 163.5 -65.6 184.9 -110.9 152.1C-156.2 119.3 -162.4 32.2 -137.4 -42.3C-112.4 -116.9 -56.2 -178.9 3.4 -180C63 -181.1 126 -121.3 143.2 -57.4Z" stroke="#000000" fill="none" stroke-width="28"></path></g><g transform="translate(984 1220)"><path d="M133.2 -51.1C146 -4.1 111.2 50.6 63.3 84.8C15.5 119 -45.5 132.8 -79 108.6C-112.4 84.3 -118.3 22 -100.6 -31.9C-82.8 -85.8 -41.4 -131.3 9.4 -134.4C60.3 -137.4 120.5 -98.1 133.2 -51.1Z" stroke="#000000" fill="none" stroke-width="28"></path></g><g transform="translate(290 1490)"><path d="M121.6 -37.9C141.2 20.7 129.3 91.1 86.8 122.8C44.3 154.4 -28.7 147.2 -82.3 109.3C-135.9 71.3 -170.1 2.5 -153.1 -52.6C-136.1 -107.6 -68.1 -148.9 -8.5 -146.1C51 -143.3 102.1 -96.5 121.6 -37.9Z" stroke="#000000" fill="none" stroke-width="28"></path></g></g></svg>