<svg xmlns="http://www.w3.org/2000/svg" xmlns:xlink="http://www.w3.org/1999/xlink" width="1900" height="1600" version="1.1" style=""><rect id="backgroundrect" width="100%" height="100%" x="0" y="0" fill="none" stroke="none"/><g class="currentLayer" style=""><title>Layer 1</title><g id="svg_1" class="selected" opacity="0.39"><g id="svg_2" opacity="0.39"><path d="M511.6607131958008,551.2162506103516 C533.0607131958008,628.1162506103516 488.3607131958008,715.5162506103516 417.86071319580077,766.6162506103516 C347.2607131958008,817.8162506103515 250.7607131958008,832.6162506103516 177.4607131958008,786.2162506103516 C104.26071319580078,739.9162506103515 54.16071319580078,632.4162506103515 80.96071319580079,548.1162506103516 C107.76071319580078,463.7162506103516 211.4607131958008,402.51625061035156 307.06071319580076,405.2162506103516 C402.6607131958008,407.8162506103515 490.2607131958008,474.2162506103516 511.6607131958008,551.2162506103516 z" stroke="#d4dbfd" fill="none" stroke-width="28" id="svg_3" opacity="0.39"/></g><g id="svg_4" opacity="0.39"><path d="M1408.5607131958009,169.71625061035155 C1420.6607131958008,206.71625061035155 1403.8607131958008,253.61625061035159 1370.6607131958008,277.71625061035155 C1337.3607131958008,301.91625061035154 1287.6607131958008,303.41625061035154 1248.6607131958008,278.01625061035156 C1209.7607131958007,252.61625061035159 1181.6607131958008,200.21625061035155 1194.3607131958008,162.41625061035154 C1207.0607131958009,124.61625061035159 1260.6607131958008,101.41625061035157 1307.9607131958007,103.41625061035157 C1355.2607131958007,105.51625061035156 1396.3607131958008,132.71625061035155 1408.5607131958009,169.71625061035155 z" stroke="#d4dbfd" fill="none" stroke-width="28" id="svg_5" opacity="0.39"/></g><g id="svg_6" opacity="0.39"><path d="M1837.3607131958008,1163.6162506103515 C1854.5607131958009,1227.4162506103517 1825.9607131958007,1295.2162506103516 1769.4607131958007,1339.8162506103515 C1712.9607131958007,1384.5162506103516 1628.5607131958009,1405.9162506103517 1583.2607131958007,1373.1162506103515 C1537.9607131958007,1340.3162506103515 1531.7607131958007,1253.2162506103516 1556.7607131958007,1178.7162506103516 C1581.7607131958007,1104.1162506103515 1637.9607131958007,1042.1162506103515 1697.5607131958009,1041.0162506103516 C1757.1607131958008,1039.9162506103517 1820.1607131958008,1099.7162506103516 1837.3607131958008,1163.6162506103515 z" stroke="#d4dbfd" fill="none" stroke-width="28" id="svg_7" opacity="0.39"/></g><g id="svg_8" opacity="0.39"><path d="M1042.3607131958008,1032.9162506103517 C1055.1607131958008,1079.9162506103517 1020.3607131958008,1134.6162506103515 972.4607131958007,1168.8162506103515 C924.6607131958008,1203.0162506103516 863.6607131958008,1216.8162506103515 830.1607131958008,1192.6162506103515 C796.7607131958008,1168.3162506103515 790.8607131958008,1106.0162506103516 808.5607131958008,1052.1162506103515 C826.3607131958008,998.2162506103516 867.7607131958008,952.7162506103516 918.5607131958008,949.6162506103515 C969.4607131958007,946.6162506103515 1029.6607131958008,985.9162506103517 1042.3607131958008,1032.9162506103517 z" stroke="#d4dbfd" fill="none" stroke-width="28" id="svg_9" opacity="0.39"/></g><g id="svg_10" opacity="0.39"><path d="M336.7607131958008,1316.1162506103515 C356.36071319580077,1374.7162506103516 344.4607131958008,1445.1162506103515 301.9607131958008,1476.8162506103515 C259.4607131958008,1508.4162506103517 186.4607131958008,1501.2162506103516 132.86071319580077,1463.3162506103515 C79.26071319580078,1425.3162506103515 45.06071319580079,1356.5162506103516 62.06071319580079,1301.4162506103517 C79.06071319580079,1246.4162506103517 147.0607131958008,1205.1162506103515 206.66071319580078,1207.9162506103517 C266.1607131958008,1210.7162506103516 317.2607131958008,1257.5162506103516 336.7607131958008,1316.1162506103515 z" stroke="#d4dbfd" fill="none" stroke-width="28" id="svg_11" opacity="0.39"/></g></g></g></svg>